<?xml version="1.0" encoding="UTF-8" standalone="no"?>
<svg width="60px" height="60px" viewBox="0 0 60 60" version="1.1" xmlns="http://www.w3.org/2000/svg" xmlns:xlink="http://www.w3.org/1999/xlink" xmlns:sketch="http://www.bohemiancoding.com/sketch/ns">
    <!-- Generator: Sketch 3.2.2 (9983) - http://www.bohemiancoding.com/sketch -->
    <title>Rainshowers</title>
    <desc>Created with Sketch.</desc>
    <defs></defs>
    <g id="stroked" stroke="none" stroke-width="1" fill="none" fill-rule="evenodd" sketch:type="MSPage">
        <g id="Weather" sketch:type="MSLayerGroup" transform="translate(-246.000000, -596.000000)" stroke="#eeeeee" stroke-width="2" stroke-linecap="round" stroke-linejoin="round">
            <g id="Rainshowers" transform="translate(252.000000, 604.000000)" sketch:type="MSShapeGroup">
                <path d="M12.0031777,31.9891894 C11.8363484,31.9963719 11.6685979,32 11.5,32 C5.14872538,32 0,26.8512746 0,20.5 C0,14.1487254 5.14872538,9 11.5,9 C11.8822344,9 12.2601133,9.01864822 12.6327764,9.0550845 C14.3673696,3.8040547 19.4723563,0 25.5,0 C32.9558441,0 39,5.82029825 39,13 C39,13.0043113 38.9999978,13.0086221 38.9999935,13.0129324 C39.1655762,13.0043463 39.3322805,13 39.5,13 C44.7467051,13 49,17.2532949 49,22.5 C49,27.5802146 45.0123568,31.7290652 39.9963665,31.9872557 L40,32 L12,32 L12.0031777,31.9891894 Z" id="Oval-33"></path>
                <path d="M18,36.2218254 L18,46.628455" id="Line-44"></path>
                <path d="M24,36.2218254 L24,46.628455" id="Line-45"></path>
                <path d="M30,36.2218254 L30,46.628455" id="Line-46"></path>
            </g>
        </g>
    </g>
</svg>