<?xml version="1.0" encoding="iso-8859-1"?>
<!DOCTYPE svg PUBLIC "-//W3C//DTD SVG 1.1//EN" "http://www.w3.org/Graphics/SVG/1.1/DTD/svg11.dtd">
<svg 
 version="1.1" xmlns="http://www.w3.org/2000/svg" xmlns:xlink="http://www.w3.org/1999/xlink" x="0px" y="0px" width="512px"
	 height="512px" viewBox="0 0 512 512" style="enable-background:new 0 0 512 512;" xml:space="preserve"
><g fill="#ffffff" id="afcae5a789ccd549f9c6e2a2f8132a9b"><g fill="#ffffff"></g><path display="inline" d="M511.5,328.99c0,52.473-42.542,95.015-95.014,95.015l-320.174,0.398
		c-52.917,0-95.813-42.895-95.813-95.813c0-42.725,27.966-78.899,66.586-91.254c-1.771-8.476-2.711-17.25-2.711-26.249
		c0-70.554,57.196-123.491,127.75-123.491c44.051,0,82.892,20.639,105.859,53.313c12.671-6.846,27.4-10.729,43.183-10.729
		c47.037,0,85.166,33.871,85.166,80.908c0,8.03-1.189,15.77-3.269,23.139C472.468,237.607,511.5,278.73,511.5,328.99z"/></g></svg>